<svg width="690" height="226" viewBox="0 0 690 226" fill="none" xmlns="http://www.w3.org/2000/svg">
<path fill-rule="evenodd" clip-rule="evenodd" d="M0.181708 195.581L0.180243 195.592L6.62983 196.4C0.180243 195.592 0.179877 195.595 0.179511 195.598L0.178778 195.605L0.176947 195.62L0.172675 195.655L0.161566 195.753C0.153143 195.829 0.14289 195.927 0.131659 196.046C0.109198 196.283 0.0828309 196.605 0.0595155 196.998C0.0131288 197.783 -0.0216613 198.869 0.0159364 200.159C0.0896669 202.697 0.447943 206.241 1.68549 209.905C2.92975 213.588 5.15412 217.647 9.1092 220.776C13.1326 223.959 18.4041 225.748 24.9294 225.748H208.546L215.046 225.748V212.748H208.546H24.9294C20.8731 212.748 18.5666 211.682 17.1749 210.581C15.7148 209.426 14.687 207.773 14.0017 205.744C13.3096 203.696 13.0611 201.528 13.0104 199.782C12.9857 198.93 13.0093 198.231 13.0368 197.766C13.0505 197.535 13.0649 197.365 13.074 197.268C13.0776 197.231 13.0803 197.204 13.082 197.189L35.8597 20.4668L35.8612 20.4558L35.8625 20.4447C36.4466 15.7868 40.6961 12.4842 45.3541 13.0683L69.3815 16.0813C74.0395 16.6654 77.342 20.9149 76.7579 25.5728L76.7553 25.5932L76.7529 25.6136L72.321 62.8632L71.6346 68.6311H84.7264L85.2299 64.3991L89.6568 27.1903L89.6596 27.1681C91.1237 15.395 82.7734 4.65878 70.999 3.18234L46.9716 0.169338C35.1938 -1.30753 24.4483 7.03958 22.965 18.815L22.9636 18.8272L0.183173 195.57L0.181708 195.581Z" transform="translate(429.454)" fill="#6219A6"/>
<path d="M63.675 86.05C63.225 86.6 62.775 87.05 62.325 87.4C61.925 87.7 61.325 87.85 60.525 87.85C59.725 87.85 58.875 87.55 57.975 86.95C57.125 86.3 56.025 85.625 54.675 84.925C53.375 84.175 51.775 83.5 49.875 82.9C48.025 82.25 45.725 81.925 42.975 81.925C39.375 81.925 36.2 82.575 33.45 83.875C30.7 85.175 28.4 87.025 26.55 89.425C24.75 91.825 23.375 94.75 22.425 98.2C21.475 101.65 21 105.525 21 109.825C21 114.275 21.5 118.25 22.5 121.75C23.5 125.2 24.925 128.125 26.775 130.525C28.625 132.875 30.875 134.675 33.525 135.925C36.175 137.125 39.125 137.725 42.375 137.725C45.525 137.725 48.125 137.35 50.175 136.6C52.225 135.8 53.925 134.95 55.275 134.05C56.625 133.15 57.75 132.325 58.65 131.575C59.55 130.775 60.475 130.375 61.425 130.375C62.625 130.375 63.55 130.825 64.2 131.725L68.4 137.125C66.65 139.275 64.675 141.1 62.475 142.6C60.325 144.1 58.025 145.325 55.575 146.275C53.125 147.225 50.55 147.925 47.85 148.375C45.2 148.825 42.5 149.05 39.75 149.05C35 149.05 30.55 148.175 26.4 146.425C22.3 144.675 18.725 142.125 15.675 138.775C12.675 135.425 10.3 131.325 8.55 126.475C6.8 121.575 5.925 116.025 5.925 109.825C5.925 104.175 6.7 98.95 8.25 94.15C9.85 89.35 12.175 85.225 15.225 81.775C18.325 78.275 22.125 75.55 26.625 73.6C31.125 71.6 36.275 70.6 42.075 70.6C47.525 70.6 52.325 71.475 56.475 73.225C60.625 74.975 64.325 77.45 67.575 80.65L63.675 86.05ZM103.352 86.425C105.802 81.425 108.752 77.5 112.202 74.65C115.652 71.8 119.802 70.375 124.652 70.375C126.302 70.375 127.852 70.575 129.302 70.975C130.802 71.325 132.102 71.875 133.202 72.625L132.227 83.65C131.877 85 131.052 85.675 129.752 85.675C129.052 85.675 128.002 85.55 126.602 85.3C125.202 85 123.702 84.85 122.102 84.85C119.752 84.85 117.677 85.2 115.877 85.9C114.077 86.55 112.452 87.55 111.002 88.9C109.602 90.2 108.352 91.825 107.252 93.775C106.152 95.675 105.127 97.85 104.177 100.3V148H89.5523V71.8H97.9523C99.5523 71.8 100.627 72.1 101.177 72.7C101.777 73.25 102.202 74.25 102.452 75.7L103.352 86.425ZM191.762 114.175C185.812 114.375 180.762 114.85 176.612 115.6C172.462 116.3 169.087 117.25 166.487 118.45C163.887 119.65 162.012 121.075 160.862 122.725C159.712 124.325 159.137 126.125 159.137 128.125C159.137 130.025 159.437 131.675 160.037 133.075C160.687 134.425 161.537 135.55 162.587 136.45C163.687 137.3 164.962 137.925 166.412 138.325C167.862 138.725 169.437 138.925 171.137 138.925C173.387 138.925 175.437 138.7 177.287 138.25C179.187 137.8 180.962 137.175 182.612 136.375C184.262 135.525 185.837 134.5 187.337 133.3C188.837 132.1 190.312 130.725 191.762 129.175V114.175ZM148.862 82.45C153.112 78.4 157.712 75.375 162.662 73.375C167.662 71.375 173.137 70.375 179.087 70.375C183.437 70.375 187.287 71.1 190.637 72.55C193.987 73.95 196.812 75.925 199.112 78.475C201.412 81.025 203.137 84.075 204.287 87.625C205.487 91.175 206.087 95.1 206.087 99.4V148H199.562C198.112 148 197.012 147.775 196.262 147.325C195.512 146.825 194.912 145.925 194.462 144.625L192.887 137.95C190.937 139.75 189.012 141.35 187.112 142.75C185.212 144.1 183.212 145.275 181.112 146.275C179.062 147.225 176.862 147.95 174.512 148.45C172.162 148.95 169.562 149.2 166.712 149.2C163.712 149.2 160.887 148.8 158.237 148C155.637 147.15 153.362 145.875 151.412 144.175C149.462 142.475 147.912 140.35 146.762 137.8C145.662 135.25 145.112 132.275 145.112 128.875C145.112 125.875 145.912 123 147.512 120.25C149.162 117.45 151.812 114.95 155.462 112.75C159.162 110.55 163.962 108.75 169.862 107.35C175.812 105.95 183.112 105.15 191.762 104.95V99.4C191.762 93.65 190.537 89.35 188.087 86.5C185.637 83.65 182.037 82.225 177.287 82.225C174.087 82.225 171.387 82.625 169.187 83.425C167.037 84.225 165.162 85.125 163.562 86.125C162.012 87.075 160.637 87.95 159.437 88.75C158.287 89.55 157.087 89.95 155.837 89.95C154.837 89.95 153.962 89.675 153.212 89.125C152.512 88.575 151.937 87.925 151.487 87.175L148.862 82.45ZM248.466 71.8V148H233.841V71.8H248.466ZM251.241 48.25C251.241 49.6 250.966 50.9 250.416 52.15C249.866 53.35 249.116 54.425 248.166 55.375C247.266 56.275 246.191 57 244.941 57.55C243.691 58.05 242.391 58.3 241.041 58.3C239.691 58.3 238.416 58.05 237.216 57.55C236.016 57 234.941 56.275 233.991 55.375C233.091 54.425 232.366 53.35 231.816 52.15C231.316 50.9 231.066 49.6 231.066 48.25C231.066 46.85 231.316 45.55 231.816 44.35C232.366 43.1 233.091 42.025 233.991 41.125C234.941 40.175 236.016 39.45 237.216 38.95C238.416 38.4 239.691 38.125 241.041 38.125C242.391 38.125 243.691 38.4 244.941 38.95C246.191 39.45 247.266 40.175 248.166 41.125C249.116 42.025 249.866 43.1 250.416 44.35C250.966 45.55 251.241 46.85 251.241 48.25ZM303.915 109.975C306.515 109.975 308.79 109.625 310.74 108.925C312.74 108.225 314.39 107.25 315.69 106C317.04 104.7 318.04 103.15 318.69 101.35C319.39 99.55 319.74 97.575 319.74 95.425C319.74 91.025 318.39 87.525 315.69 84.925C313.04 82.275 309.115 80.95 303.915 80.95C298.765 80.95 294.84 82.275 292.14 84.925C289.49 87.525 288.165 91.025 288.165 95.425C288.165 97.575 288.49 99.55 289.14 101.35C289.84 103.1 290.84 104.625 292.14 105.925C293.49 107.175 295.14 108.175 297.09 108.925C299.09 109.625 301.365 109.975 303.915 109.975ZM327.24 151.975C327.24 150.175 326.74 148.75 325.74 147.7C324.74 146.6 323.365 145.75 321.615 145.15C319.915 144.5 317.915 144.05 315.615 143.8C313.315 143.5 310.89 143.275 308.34 143.125C305.84 142.975 303.265 142.85 300.615 142.75C297.965 142.6 295.415 142.35 292.965 142C290.365 143.3 288.215 144.875 286.515 146.725C284.865 148.575 284.04 150.75 284.04 153.25C284.04 154.85 284.44 156.35 285.24 157.75C286.09 159.15 287.365 160.35 289.065 161.35C290.815 162.4 292.99 163.2 295.59 163.75C298.24 164.35 301.39 164.65 305.04 164.65C308.64 164.65 311.815 164.325 314.565 163.675C317.315 163.075 319.615 162.2 321.465 161.05C323.365 159.95 324.79 158.625 325.74 157.075C326.74 155.525 327.24 153.825 327.24 151.975ZM342.09 74.65V80.125C342.09 81.925 340.965 83.05 338.715 83.5L330.54 84.7C331.24 86.25 331.79 87.9 332.19 89.65C332.59 91.35 332.79 93.15 332.79 95.05C332.79 98.8 332.065 102.2 330.615 105.25C329.165 108.25 327.165 110.825 324.615 112.975C322.065 115.125 319.015 116.775 315.465 117.925C311.965 119.075 308.115 119.65 303.915 119.65C300.465 119.65 297.24 119.275 294.24 118.525C292.74 119.425 291.59 120.425 290.79 121.525C290.04 122.575 289.665 123.625 289.665 124.675C289.665 126.425 290.39 127.725 291.84 128.575C293.34 129.425 295.265 130.05 297.615 130.45C300.015 130.8 302.74 131.025 305.79 131.125C308.89 131.225 312.015 131.4 315.165 131.65C318.365 131.85 321.49 132.25 324.54 132.85C327.64 133.4 330.365 134.325 332.715 135.625C335.115 136.875 337.04 138.625 338.49 140.875C339.99 143.075 340.74 145.95 340.74 149.5C340.74 152.8 339.915 156 338.265 159.1C336.665 162.2 334.315 164.95 331.215 167.35C328.115 169.75 324.34 171.675 319.89 173.125C315.44 174.575 310.39 175.3 304.74 175.3C299.09 175.3 294.165 174.75 289.965 173.65C285.815 172.55 282.34 171.075 279.54 169.225C276.79 167.375 274.715 165.225 273.315 162.775C271.965 160.325 271.29 157.775 271.29 155.125C271.29 151.425 272.44 148.3 274.74 145.75C277.04 143.15 280.215 141.125 284.265 139.675C282.065 138.675 280.315 137.325 279.015 135.625C277.715 133.875 277.065 131.575 277.065 128.725C277.065 127.625 277.265 126.5 277.665 125.35C278.065 124.15 278.665 122.975 279.465 121.825C280.315 120.625 281.34 119.5 282.54 118.45C283.79 117.4 285.215 116.45 286.815 115.6C283.065 113.5 280.115 110.725 277.965 107.275C275.815 103.775 274.74 99.7 274.74 95.05C274.74 91.3 275.465 87.925 276.915 84.925C278.365 81.925 280.365 79.35 282.915 77.2C285.515 75.05 288.59 73.4 292.14 72.25C295.74 71.1 299.665 70.525 303.915 70.525C310.515 70.525 316.19 71.9 320.94 74.65H342.09ZM407.934 84.925C407.534 85.575 407.109 86.05 406.659 86.35C406.209 86.6 405.634 86.725 404.934 86.725C404.134 86.725 403.234 86.45 402.234 85.9C401.284 85.35 400.109 84.75 398.709 84.1C397.359 83.45 395.759 82.85 393.909 82.3C392.059 81.75 389.859 81.475 387.309 81.475C385.209 81.475 383.284 81.75 381.534 82.3C379.834 82.8 378.384 83.525 377.184 84.475C375.984 85.375 375.059 86.475 374.409 87.775C373.759 89.025 373.434 90.375 373.434 91.825C373.434 93.725 373.984 95.3 375.084 96.55C376.234 97.8 377.709 98.875 379.509 99.775C381.359 100.675 383.434 101.5 385.734 102.25C388.084 102.95 390.459 103.7 392.859 104.5C395.309 105.3 397.684 106.225 399.984 107.275C402.334 108.275 404.409 109.55 406.209 111.1C408.059 112.6 409.534 114.425 410.634 116.575C411.784 118.725 412.359 121.35 412.359 124.45C412.359 128 411.709 131.3 410.409 134.35C409.159 137.35 407.284 139.95 404.784 142.15C402.334 144.35 399.284 146.075 395.634 147.325C391.984 148.575 387.809 149.2 383.109 149.2C377.859 149.2 373.009 148.325 368.559 146.575C364.109 144.825 360.384 142.6 357.384 139.9L360.834 134.275C361.234 133.575 361.734 133.05 362.334 132.7C362.934 132.3 363.734 132.1 364.734 132.1C365.684 132.1 366.659 132.45 367.659 133.15C368.659 133.85 369.859 134.625 371.259 135.475C372.659 136.275 374.359 137.025 376.359 137.725C378.359 138.375 380.859 138.7 383.859 138.7C386.359 138.7 388.534 138.4 390.384 137.8C392.234 137.15 393.759 136.3 394.959 135.25C396.209 134.15 397.134 132.9 397.734 131.5C398.334 130.1 398.634 128.625 398.634 127.075C398.634 125.075 398.059 123.425 396.909 122.125C395.809 120.775 394.334 119.625 392.484 118.675C390.684 117.725 388.609 116.9 386.259 116.2C383.909 115.5 381.509 114.75 379.059 113.95C376.609 113.15 374.209 112.225 371.859 111.175C369.509 110.125 367.409 108.8 365.559 107.2C363.759 105.6 362.284 103.65 361.134 101.35C360.034 99.05 359.484 96.25 359.484 92.95C359.484 90 360.084 87.175 361.284 84.475C362.534 81.775 364.309 79.4 366.609 77.35C368.959 75.3 371.834 73.675 375.234 72.475C378.684 71.225 382.609 70.6 387.009 70.6C392.059 70.6 396.609 71.4 400.659 73C404.759 74.6 408.259 76.8 411.159 79.6L407.934 84.925Z" transform="translate(0 42.6311)" fill="#6219A6"/>
<path d="M27.45 72.025L18.3 148H5.175L14.325 72.025H27.45ZM32.55 48.175C32.55 49.475 32.275 50.7 31.725 51.85C31.225 52.95 30.525 53.95 29.625 54.85C28.775 55.7 27.775 56.375 26.625 56.875C25.525 57.375 24.375 57.625 23.175 57.625C22.025 57.625 20.9 57.375 19.8 56.875C18.7 56.375 17.725 55.7 16.875 54.85C16.075 53.95 15.425 52.95 14.925 51.85C14.425 50.7 14.175 49.475 14.175 48.175C14.175 46.875 14.425 45.65 14.925 44.5C15.425 43.35 16.1 42.35 16.95 41.5C17.8 40.6 18.775 39.9 19.875 39.4C20.975 38.85 22.1 38.575 23.25 38.575C24.45 38.575 25.6 38.825 26.7 39.325C27.85 39.825 28.85 40.525 29.7 41.425C30.55 42.275 31.225 43.3 31.725 44.5C32.275 45.65 32.55 46.875 32.55 48.175ZM96.9703 84.175C96.5703 84.775 96.1703 85.225 95.7703 85.525C95.3703 85.775 94.8703 85.9 94.2703 85.9C93.5703 85.9 92.7953 85.625 91.9453 85.075C91.1453 84.525 90.1453 83.925 88.9453 83.275C87.7953 82.575 86.3703 81.95 84.6703 81.4C82.9703 80.8 80.9203 80.5 78.5203 80.5C76.2703 80.5 74.2203 80.825 72.3703 81.475C70.5203 82.075 68.9203 82.925 67.5703 84.025C66.2703 85.125 65.2453 86.425 64.4953 87.925C63.7953 89.375 63.4453 90.925 63.4453 92.575C63.4453 94.925 64.2203 96.8 65.7703 98.2C67.3203 99.6 69.2703 100.825 71.6203 101.875C73.9703 102.875 76.4953 103.85 79.1953 104.8C81.8953 105.75 84.4203 106.95 86.7703 108.4C89.1203 109.85 91.0703 111.7 92.6203 113.95C94.1703 116.2 94.9453 119.125 94.9453 122.725C94.9453 126.225 94.2453 129.575 92.8453 132.775C91.4953 135.975 89.5203 138.8 86.9203 141.25C84.3703 143.65 81.2703 145.575 77.6203 147.025C74.0203 148.475 69.9703 149.2 65.4703 149.2C60.6203 149.2 56.3203 148.35 52.5703 146.65C48.8703 144.9 45.8453 142.675 43.4953 139.975L46.7953 134.875C47.2453 134.225 47.7203 133.725 48.2203 133.375C48.7703 133.025 49.4703 132.85 50.3203 132.85C51.1203 132.85 51.9203 133.2 52.7203 133.9C53.5203 134.6 54.5203 135.4 55.7203 136.3C56.9203 137.15 58.4203 137.925 60.2203 138.625C62.0703 139.325 64.3953 139.675 67.1953 139.675C69.6453 139.675 71.8453 139.3 73.7953 138.55C75.7953 137.8 77.4703 136.8 78.8203 135.55C80.2203 134.3 81.2703 132.85 81.9703 131.2C82.7203 129.5 83.0953 127.7 83.0953 125.8C83.0953 123.25 82.3203 121.225 80.7703 119.725C79.2203 118.225 77.2703 116.975 74.9203 115.975C72.5703 114.975 70.0453 114.05 67.3453 113.2C64.6453 112.3 62.1203 111.175 59.7703 109.825C57.4203 108.425 55.4703 106.625 53.9203 104.425C52.3703 102.225 51.5953 99.3 51.5953 95.65C51.5953 92.45 52.2203 89.375 53.4703 86.425C54.7703 83.425 56.6203 80.775 59.0203 78.475C61.4203 76.175 64.3203 74.35 67.7203 73C71.1703 71.6 75.0453 70.9 79.3453 70.9C83.8953 70.9 87.8953 71.675 91.3453 73.225C94.8453 74.725 97.8453 76.775 100.345 79.375L96.9703 84.175ZM123.054 133.675C123.054 133.375 123.054 133 123.054 132.55C123.054 132.05 123.079 131.35 123.129 130.45C123.229 129.55 123.354 128.375 123.504 126.925C123.704 125.475 123.954 123.575 124.254 121.225L128.904 83.2H120.429C119.729 83.2 119.154 82.975 118.704 82.525C118.304 82.025 118.154 81.275 118.254 80.275L118.854 74.95L130.554 73.375L136.254 49.9C136.504 49.15 136.879 48.55 137.379 48.1C137.929 47.6 138.604 47.35 139.404 47.35H146.379L143.154 73.525H163.104L161.979 83.2H141.954L137.379 120.55C137.129 122.6 136.929 124.25 136.779 125.5C136.629 126.75 136.504 127.75 136.404 128.5C136.354 129.25 136.304 129.775 136.254 130.075C136.254 130.375 136.254 130.6 136.254 130.75C136.254 133.3 136.854 135.2 138.054 136.45C139.254 137.65 140.854 138.25 142.854 138.25C144.204 138.25 145.354 138.075 146.304 137.725C147.304 137.325 148.179 136.9 148.929 136.45C149.679 136 150.304 135.6 150.804 135.25C151.304 134.85 151.729 134.65 152.079 134.65C152.529 134.65 152.854 134.75 153.054 134.95C153.304 135.15 153.529 135.475 153.729 135.925L156.579 142.3C154.129 144.45 151.329 146.15 148.179 147.4C145.079 148.6 141.954 149.2 138.804 149.2C133.954 149.2 130.129 147.875 127.329 145.225C124.579 142.575 123.154 138.725 123.054 133.675Z" transform="translate(481 42.7531)" fill="#6219A6"/>
</svg>
