<svg width="679" height="175" viewBox="0 0 679 175" fill="none" xmlns="http://www.w3.org/2000/svg">
<path d="M5.38323 14.7L5.61728 24.6167V84.8167H0V0.699998H2.57459L57.6942 64.05C61.439 68.4833 64.3257 72.0222 66.3542 74.6667C66.0421 70.9333 65.886 66.6556 65.886 61.8333V1.4H71.5033V85.5167H68.9287L12.7559 21C8.85502 16.5667 6.35845 13.6111 5.2662 12.1333L5.38323 14.7Z" transform="translate(222.537 38.6833)" fill="white"/>
<path d="M102.398 84.8167V1.4H108.016V84.8167H102.398Z" transform="translate(222.537 38.6833)" fill="white"/>
<path d="M178.41 80.5H175.25L150.792 21.4667C149.387 18.2 148.256 15.3222 147.398 12.8333L146.228 21.7L136.631 84.8167H130.897L144.706 0.699998H147.983L174.08 62.5333C175.406 65.4111 176.46 68.1333 177.24 70.7C177.474 69.8444 178.683 67.1611 180.868 62.65L210.007 0.699998H213.167L225.923 84.8167H220.071L210.943 21.4667C210.319 17.5 210.007 14.5056 210.007 12.4833C209.929 12.5611 209.734 12.95 209.422 13.65C209.188 14.2722 208.72 15.3611 208.018 16.9167C207.394 18.3944 206.73 19.95 206.028 21.5833L178.41 80.5Z" transform="translate(222.537 38.6833)" fill="white"/>
<path d="M248.91 1.63333C254.996 1.16667 261.198 0.933335 267.518 0.933335C273.915 0.933335 279.415 2.48889 284.018 5.6C288.699 8.71111 291.04 13.2222 291.04 19.1333C291.04 23.5667 289.792 27.6889 287.295 31.5C284.877 35.3111 281.951 38.1889 278.518 40.1333C284.057 41.8444 288.699 44.8 292.444 49C296.189 53.2 298.062 57.9056 298.062 63.1167C298.062 70.4278 295.721 75.9889 291.04 79.8C286.437 83.6111 280.078 85.5167 271.965 85.5167C263.929 85.5167 256.244 85.2056 248.91 84.5833V1.63333ZM272.667 80.5C278.362 80.5 283.043 78.9444 286.71 75.8333C290.377 72.6444 292.21 68.6 292.21 63.7C292.21 58.8 290.416 54.5611 286.827 50.9833C283.316 47.4056 278.479 44.9556 272.316 43.6333C269.429 43.0111 266.074 42.7 262.251 42.7C258.507 42.7 255.932 42.7 254.528 42.7V79.9167C257.96 80.3056 264.007 80.5 272.667 80.5ZM285.423 19.0167C285.423 14.7389 283.628 11.4333 280.039 9.1C276.529 6.76667 272.55 5.6 268.103 5.6C263.734 5.6 259.209 5.75555 254.528 6.06666V37.9167C255.542 37.9167 257.453 37.9167 260.262 37.9167C263.071 37.9167 267.206 38.15 272.667 38.6167C276.178 36.75 279.181 34.0667 281.678 30.5667C284.174 27.0667 285.423 23.2167 285.423 19.0167Z" transform="translate(222.537 38.6833)" fill="white"/>
<path d="M378.916 76.7667C373.533 83.0667 365.341 86.2167 354.34 86.2167C343.34 86.2167 335.109 83.0278 329.648 76.65C324.265 70.2722 321.573 61.5611 321.573 50.5167V1.4H327.19V50.5167C327.19 71.05 336.201 81.3167 354.223 81.3167C372.324 81.3167 381.374 71.05 381.374 50.5167V1.4H386.991V50.5167C386.991 61.6389 384.299 70.3889 378.916 76.7667Z" transform="translate(222.537 38.6833)" fill="white"/>
<path d="M453.069 8.75C447.374 6.33889 441.717 5.13333 436.1 5.13333C424.71 5.13333 419.014 9.33333 419.014 17.7333C419.014 21.3889 420.301 24.8111 422.876 28C425.451 31.1111 428.571 33.9111 432.238 36.4C435.905 38.8111 439.572 41.3 443.239 43.8667C446.906 46.4333 450.026 49.5056 452.601 53.0833C455.175 56.6611 456.463 60.55 456.463 64.75C456.463 71.8278 454.083 77.1944 449.324 80.85C444.565 84.4278 437.973 86.2167 429.547 86.2167C421.199 86.2167 414.06 84.0778 408.131 79.8L410.939 75.6C416.557 79.2556 422.72 81.0833 429.43 81.0833C436.139 81.0833 441.288 79.7611 444.877 77.1167C448.466 74.3944 450.26 70.5056 450.26 65.45C450.26 61.95 448.973 58.6444 446.398 55.5333C443.824 52.3444 440.703 49.5056 437.036 47.0167C433.369 44.45 429.703 41.8444 426.036 39.2C422.369 36.5556 419.248 33.4056 416.674 29.75C414.099 26.0944 412.812 22.1667 412.812 17.9667C412.812 12.4444 414.84 8.08889 418.897 4.9C423.032 1.63333 428.571 0 435.515 0C442.537 0 449.051 1.4 455.058 4.2L453.069 8.75Z" transform="translate(222.537 38.6833)" fill="white"/>
<path d="M175.5 87.5C175.5 135.825 136.213 175 87.7499 175C39.287 175 0 135.825 0 87.5C0 39.1751 39.287 0 87.7499 0C136.213 0 175.5 39.1751 175.5 87.5Z" fill="white"/>
<path fill-rule="evenodd" clip-rule="evenodd" d="M61.009 0V122.936L8.35905 70.4359V171.062H0V50.3141L52.6499 102.814V0H61.009Z" transform="translate(57.2452 0.875122)" fill="#154261"/>
</svg>
